<mxfile host="app.diagrams.net" modified="2023-06-05T02:48:02.730Z" agent="Mozilla/5.0 (Windows NT 10.0; Win64; x64) AppleWebKit/537.36 (KHTML, like Gecko) Chrome/114.0.0.0 Safari/537.36" etag="STDIQRCzY1M7-4t_1EXZ" version="21.3.5" type="github">
  <diagram name="第 1 页" id="KduLYndKNVb0DiqRNAXw">
    <mxGraphModel dx="1276" dy="521" grid="0" gridSize="10" guides="1" tooltips="1" connect="1" arrows="1" fold="1" page="1" pageScale="1" pageWidth="3300" pageHeight="4681" math="0" shadow="0">
      <root>
        <mxCell id="0" />
        <mxCell id="1" parent="0" />
        <mxCell id="Hda8d-uR7hXx54jVPNDE-1" value="新节点" style="ellipse;whiteSpace=wrap;html=1;aspect=fixed;" vertex="1" parent="1">
          <mxGeometry x="170" y="258" width="80" height="80" as="geometry" />
        </mxCell>
        <mxCell id="Hda8d-uR7hXx54jVPNDE-2" value="已入网&lt;br&gt;转发节点" style="ellipse;whiteSpace=wrap;html=1;aspect=fixed;" vertex="1" parent="1">
          <mxGeometry x="420" y="258" width="80" height="80" as="geometry" />
        </mxCell>
        <mxCell id="Hda8d-uR7hXx54jVPNDE-3" value="主节点" style="ellipse;whiteSpace=wrap;html=1;aspect=fixed;" vertex="1" parent="1">
          <mxGeometry x="670" y="258" width="80" height="80" as="geometry" />
        </mxCell>
        <mxCell id="Hda8d-uR7hXx54jVPNDE-7" value="JUDGEACCESSNET" style="curved=1;endArrow=classic;html=1;rounded=0;entryX=0;entryY=0.5;entryDx=0;entryDy=0;" edge="1" parent="1" target="Hda8d-uR7hXx54jVPNDE-3">
          <mxGeometry width="50" height="50" relative="1" as="geometry">
            <mxPoint x="500" y="298" as="sourcePoint" />
            <mxPoint x="550" y="248" as="targetPoint" />
            <Array as="points">
              <mxPoint x="510" y="278" />
              <mxPoint x="580" y="248" />
              <mxPoint x="640" y="268" />
            </Array>
          </mxGeometry>
        </mxCell>
        <mxCell id="Hda8d-uR7hXx54jVPNDE-10" value="CONNECTNEWNODE" style="curved=1;endArrow=classic;html=1;rounded=0;exitX=0;exitY=0.5;exitDx=0;exitDy=0;entryX=1;entryY=0.5;entryDx=0;entryDy=0;" edge="1" parent="1" source="Hda8d-uR7hXx54jVPNDE-3" target="Hda8d-uR7hXx54jVPNDE-2">
          <mxGeometry x="-0.0006" width="50" height="50" relative="1" as="geometry">
            <mxPoint x="540" y="388" as="sourcePoint" />
            <mxPoint x="590" y="338" as="targetPoint" />
            <Array as="points">
              <mxPoint x="640" y="338" />
              <mxPoint x="580" y="348" />
              <mxPoint x="520" y="328" />
            </Array>
            <mxPoint as="offset" />
          </mxGeometry>
        </mxCell>
        <mxCell id="Hda8d-uR7hXx54jVPNDE-12" value="广播" style="curved=1;endArrow=classic;html=1;rounded=0;entryX=0;entryY=0.5;entryDx=0;entryDy=0;" edge="1" parent="1">
          <mxGeometry x="-0.0009" width="50" height="50" relative="1" as="geometry">
            <mxPoint x="250" y="298" as="sourcePoint" />
            <mxPoint x="420" y="298" as="targetPoint" />
            <Array as="points">
              <mxPoint x="258" y="257" />
              <mxPoint x="335" y="218" />
              <mxPoint x="415" y="259" />
            </Array>
            <mxPoint as="offset" />
          </mxGeometry>
        </mxCell>
        <mxCell id="Hda8d-uR7hXx54jVPNDE-23" value="回调通知" style="edgeStyle=orthogonalEdgeStyle;rounded=0;orthogonalLoop=1;jettySize=auto;html=1;exitX=1;exitY=0.5;exitDx=0;exitDy=0;entryX=0;entryY=0.5;entryDx=0;entryDy=0;" edge="1" parent="1" source="Hda8d-uR7hXx54jVPNDE-15" target="Hda8d-uR7hXx54jVPNDE-17">
          <mxGeometry relative="1" as="geometry" />
        </mxCell>
        <mxCell id="Hda8d-uR7hXx54jVPNDE-15" value="断开节点" style="ellipse;whiteSpace=wrap;html=1;aspect=fixed;" vertex="1" parent="1">
          <mxGeometry x="170" y="534" width="80" height="80" as="geometry" />
        </mxCell>
        <mxCell id="Hda8d-uR7hXx54jVPNDE-24" value="RECUCLEMESHID" style="edgeStyle=orthogonalEdgeStyle;rounded=0;orthogonalLoop=1;jettySize=auto;html=1;exitX=1;exitY=0.5;exitDx=0;exitDy=0;entryX=0;entryY=0.5;entryDx=0;entryDy=0;" edge="1" parent="1" source="Hda8d-uR7hXx54jVPNDE-17" target="Hda8d-uR7hXx54jVPNDE-18">
          <mxGeometry relative="1" as="geometry" />
        </mxCell>
        <mxCell id="Hda8d-uR7hXx54jVPNDE-17" value="周边节点" style="ellipse;whiteSpace=wrap;html=1;aspect=fixed;" vertex="1" parent="1">
          <mxGeometry x="420" y="534" width="80" height="80" as="geometry" />
        </mxCell>
        <mxCell id="Hda8d-uR7hXx54jVPNDE-18" value="主节点" style="ellipse;whiteSpace=wrap;html=1;aspect=fixed;" vertex="1" parent="1">
          <mxGeometry x="670" y="534" width="80" height="80" as="geometry" />
        </mxCell>
        <mxCell id="Hda8d-uR7hXx54jVPNDE-43" value="建立连接" style="curved=1;endArrow=classic;html=1;rounded=0;entryX=1;entryY=0.5;entryDx=0;entryDy=0;" edge="1" parent="1" target="Hda8d-uR7hXx54jVPNDE-1">
          <mxGeometry width="50" height="50" relative="1" as="geometry">
            <mxPoint x="420" y="297" as="sourcePoint" />
            <mxPoint x="310" y="313" as="targetPoint" />
            <Array as="points">
              <mxPoint x="384" y="270" />
              <mxPoint x="343" y="259" />
              <mxPoint x="288" y="268" />
            </Array>
          </mxGeometry>
        </mxCell>
        <mxCell id="Hda8d-uR7hXx54jVPNDE-44" value="SETUPMAPPING" style="curved=1;endArrow=classic;html=1;rounded=0;exitX=0;exitY=0.5;exitDx=0;exitDy=0;entryX=1;entryY=0.5;entryDx=0;entryDy=0;" edge="1" parent="1">
          <mxGeometry x="-0.0006" width="50" height="50" relative="1" as="geometry">
            <mxPoint x="420" y="296" as="sourcePoint" />
            <mxPoint x="250" y="296" as="targetPoint" />
            <Array as="points">
              <mxPoint x="378" y="330" />
              <mxPoint x="272" y="319" />
            </Array>
            <mxPoint as="offset" />
          </mxGeometry>
        </mxCell>
        <mxCell id="Hda8d-uR7hXx54jVPNDE-46" value="REQUESTMESSAGE" style="curved=1;endArrow=classic;html=1;rounded=0;exitX=0;exitY=0.5;exitDx=0;exitDy=0;entryX=1;entryY=0.5;entryDx=0;entryDy=0;" edge="1" parent="1">
          <mxGeometry x="-0.0006" width="50" height="50" relative="1" as="geometry">
            <mxPoint x="250" y="299" as="sourcePoint" />
            <mxPoint x="420" y="299" as="targetPoint" />
            <Array as="points">
              <mxPoint x="270" y="329" />
              <mxPoint x="295" y="349" />
              <mxPoint x="332" y="361" />
              <mxPoint x="388" y="349" />
            </Array>
            <mxPoint as="offset" />
          </mxGeometry>
        </mxCell>
        <mxCell id="Hda8d-uR7hXx54jVPNDE-51" value="UPDATEROUTE" style="edgeStyle=orthogonalEdgeStyle;rounded=0;orthogonalLoop=1;jettySize=auto;html=1;exitX=1;exitY=0.5;exitDx=0;exitDy=0;entryX=0;entryY=0.5;entryDx=0;entryDy=0;" edge="1" parent="1" source="Hda8d-uR7hXx54jVPNDE-49" target="Hda8d-uR7hXx54jVPNDE-50">
          <mxGeometry relative="1" as="geometry" />
        </mxCell>
        <mxCell id="Hda8d-uR7hXx54jVPNDE-49" value="已入网节点" style="ellipse;whiteSpace=wrap;html=1;aspect=fixed;" vertex="1" parent="1">
          <mxGeometry x="880.5" y="258" width="80" height="80" as="geometry" />
        </mxCell>
        <mxCell id="Hda8d-uR7hXx54jVPNDE-50" value="已入网周边节点" style="ellipse;whiteSpace=wrap;html=1;aspect=fixed;" vertex="1" parent="1">
          <mxGeometry x="1124" y="254.5" width="87" height="87" as="geometry" />
        </mxCell>
        <mxCell id="Hda8d-uR7hXx54jVPNDE-53" value="已入网节点" style="ellipse;whiteSpace=wrap;html=1;aspect=fixed;" vertex="1" parent="1">
          <mxGeometry x="874" y="524" width="80" height="80" as="geometry" />
        </mxCell>
        <mxCell id="Hda8d-uR7hXx54jVPNDE-54" value="主节点" style="ellipse;whiteSpace=wrap;html=1;aspect=fixed;" vertex="1" parent="1">
          <mxGeometry x="1124" y="520.5" width="87" height="87" as="geometry" />
        </mxCell>
        <mxCell id="Hda8d-uR7hXx54jVPNDE-55" value="&lt;font style=&quot;font-size: 24px;&quot;&gt;&lt;b&gt;节点入网&lt;/b&gt;&lt;/font&gt;" style="text;html=1;strokeColor=#FF6421;fillColor=none;align=center;verticalAlign=middle;whiteSpace=wrap;rounded=0;" vertex="1" parent="1">
          <mxGeometry x="172" y="140" width="105" height="45" as="geometry" />
        </mxCell>
        <mxCell id="Hda8d-uR7hXx54jVPNDE-56" value="&lt;font style=&quot;font-size: 24px;&quot;&gt;&lt;b&gt;节点出网&lt;/b&gt;&lt;/font&gt;" style="text;html=1;strokeColor=#FF6421;fillColor=none;align=center;verticalAlign=middle;whiteSpace=wrap;rounded=0;" vertex="1" parent="1">
          <mxGeometry x="174" y="435" width="105" height="45" as="geometry" />
        </mxCell>
        <mxCell id="Hda8d-uR7hXx54jVPNDE-57" value="&lt;font style=&quot;font-size: 24px;&quot;&gt;&lt;b&gt;RIP更新路由&lt;/b&gt;&lt;/font&gt;" style="text;html=1;strokeColor=#FF6421;fillColor=none;align=center;verticalAlign=middle;whiteSpace=wrap;rounded=0;" vertex="1" parent="1">
          <mxGeometry x="876" y="140" width="140" height="45" as="geometry" />
        </mxCell>
        <mxCell id="Hda8d-uR7hXx54jVPNDE-58" value="HEARTBEAT" style="curved=1;endArrow=classic;html=1;rounded=0;entryX=0;entryY=0.5;entryDx=0;entryDy=0;" edge="1" parent="1">
          <mxGeometry x="-0.0009" width="50" height="50" relative="1" as="geometry">
            <mxPoint x="954" y="564" as="sourcePoint" />
            <mxPoint x="1124" y="564" as="targetPoint" />
            <Array as="points">
              <mxPoint x="964" y="544" />
              <mxPoint x="1034" y="514" />
              <mxPoint x="1094" y="534" />
            </Array>
            <mxPoint as="offset" />
          </mxGeometry>
        </mxCell>
        <mxCell id="Hda8d-uR7hXx54jVPNDE-59" value="HEARTBEAT" style="curved=1;endArrow=classic;html=1;rounded=0;exitX=0;exitY=0.5;exitDx=0;exitDy=0;entryX=1;entryY=0.5;entryDx=0;entryDy=0;" edge="1" parent="1">
          <mxGeometry x="-0.0006" width="50" height="50" relative="1" as="geometry">
            <mxPoint x="1124" y="564" as="sourcePoint" />
            <mxPoint x="954" y="564" as="targetPoint" />
            <Array as="points">
              <mxPoint x="1094" y="604" />
              <mxPoint x="1034" y="614" />
              <mxPoint x="974" y="594" />
            </Array>
            <mxPoint as="offset" />
          </mxGeometry>
        </mxCell>
        <mxCell id="Hda8d-uR7hXx54jVPNDE-60" value="&lt;font style=&quot;font-size: 24px;&quot;&gt;&lt;b&gt;心跳&lt;/b&gt;&lt;/font&gt;" style="text;html=1;strokeColor=#FF6421;fillColor=none;align=center;verticalAlign=middle;whiteSpace=wrap;rounded=0;" vertex="1" parent="1">
          <mxGeometry x="874" y="435" width="105" height="45" as="geometry" />
        </mxCell>
        <mxCell id="Hda8d-uR7hXx54jVPNDE-61" value="&lt;font style=&quot;font-size: 18px;&quot;&gt;注：&lt;br&gt;1、流程图中的大写英文单词为数据包类型，其具体介绍见数据包格式介绍文档&lt;br&gt;2、图中的①②等序号为执行顺序&lt;br&gt;&lt;/font&gt;" style="text;html=1;strokeColor=none;fillColor=none;align=left;verticalAlign=middle;whiteSpace=wrap;rounded=0;" vertex="1" parent="1">
          <mxGeometry x="174" y="693" width="636" height="86" as="geometry" />
        </mxCell>
        <mxCell id="Hda8d-uR7hXx54jVPNDE-62" value="&lt;font style=&quot;font-size: 14px;&quot;&gt;1&lt;/font&gt;" style="ellipse;whiteSpace=wrap;html=1;aspect=fixed;" vertex="1" parent="1">
          <mxGeometry x="324" y="189" width="21" height="21" as="geometry" />
        </mxCell>
        <mxCell id="Hda8d-uR7hXx54jVPNDE-63" value="&lt;font style=&quot;font-size: 14px;&quot;&gt;2&lt;/font&gt;" style="ellipse;whiteSpace=wrap;html=1;aspect=fixed;" vertex="1" parent="1">
          <mxGeometry x="568" y="220" width="21" height="21" as="geometry" />
        </mxCell>
        <mxCell id="Hda8d-uR7hXx54jVPNDE-64" value="&lt;font style=&quot;font-size: 14px;&quot;&gt;3&lt;/font&gt;" style="ellipse;whiteSpace=wrap;html=1;aspect=fixed;" vertex="1" parent="1">
          <mxGeometry x="568" y="359" width="21" height="21" as="geometry" />
        </mxCell>
        <mxCell id="Hda8d-uR7hXx54jVPNDE-66" value="&lt;font style=&quot;font-size: 14px;&quot;&gt;4&lt;/font&gt;" style="ellipse;whiteSpace=wrap;html=1;aspect=fixed;" vertex="1" parent="1">
          <mxGeometry x="321" y="269" width="21" height="21" as="geometry" />
        </mxCell>
        <mxCell id="Hda8d-uR7hXx54jVPNDE-67" value="&lt;font style=&quot;font-size: 14px;&quot;&gt;5&lt;/font&gt;" style="ellipse;whiteSpace=wrap;html=1;aspect=fixed;" vertex="1" parent="1">
          <mxGeometry x="321" y="298" width="21" height="21" as="geometry" />
        </mxCell>
        <mxCell id="Hda8d-uR7hXx54jVPNDE-68" value="&lt;font style=&quot;font-size: 14px;&quot;&gt;6&lt;/font&gt;" style="ellipse;whiteSpace=wrap;html=1;aspect=fixed;" vertex="1" parent="1">
          <mxGeometry x="324" y="369" width="21" height="21" as="geometry" />
        </mxCell>
        <mxCell id="Hda8d-uR7hXx54jVPNDE-69" value="&lt;font style=&quot;font-size: 14px;&quot;&gt;1&lt;/font&gt;" style="ellipse;whiteSpace=wrap;html=1;aspect=fixed;" vertex="1" parent="1">
          <mxGeometry x="1024" y="486" width="21" height="21" as="geometry" />
        </mxCell>
        <mxCell id="Hda8d-uR7hXx54jVPNDE-70" value="&lt;font style=&quot;font-size: 14px;&quot;&gt;2&lt;/font&gt;" style="ellipse;whiteSpace=wrap;html=1;aspect=fixed;" vertex="1" parent="1">
          <mxGeometry x="1024" y="625" width="21" height="21" as="geometry" />
        </mxCell>
      </root>
    </mxGraphModel>
  </diagram>
</mxfile>
